<svg xmlns="http://www.w3.org/2000/svg" xmlns:xlink="http://www.w3.org/1999/xlink" width="512" height="512" viewBox="0 0 135.467 135.467"><defs><linearGradient id="a"><stop offset="0" stop-color="#11636c"/><stop offset="1" stop-color="#38aab0"/></linearGradient><linearGradient xlink:href="#a" id="b" x1="66.146" y1="162.062" x2="66.146" y2="252.021" gradientUnits="userSpaceOnUse" gradientTransform="matrix(1 0 0 1.01438 0 -3.624)"/></defs><path fill="url(#b)" d="M0 160.262h135.506v91.693H0z" transform="translate(0 -161.533)"/><path d="M0 86.783s45.156-6.35 67.733-6.35c22.602 0 67.734 6.35 67.734 6.35l.071 48.684H0z"/><g style="line-height:1.25"><path d="M41.809 101.331V84.3h8.82l.11 1.322.165 3.583q.165 4.41 4.079 7.111 3.748 2.646 9.646 2.646 6.615 0 10.694-4.08 4.079-4.078 4.079-10.582 0-5.072-2.425-8.214-2.536-3.252-9.15-6.835l-5.458-2.976q-20.45-11.135-20.45-25.08 0-9.977 7.387-16.206 7.386-6.284 19.623-6.284 9.205 0 21.938 3.583v16.426h-8.874l-.056-.992-.165-3.693q-.44-9.922-11.024-9.922-5.788 0-9.481 3.693-3.693 3.638-3.693 9.37 0 4.19 2.425 7.111 2.315 2.756 9.095 6.725l5.512 3.197q12.127 7.056 16.482 12.347 4.464 5.513 4.464 13.34 0 11.08-8.323 17.749-8.378 6.725-22.38 6.725-9.756 0-23.04-3.032z" style="-inkscape-font-specification:'Luxi Serif Bold'" font-weight="700" font-size="112.889" font-family="Luxi Serif" fill="#fff" aria-label="S" letter-spacing="0" word-spacing="0" stroke-width=".265"/></g></svg>